<svg width="644" height="140" viewBox="0 0 644 140" fill="none" xmlns="http://www.w3.org/2000/svg">
<g clip-path="url(#clip0_102_2)">
<path d="M110.473 31.6067L62.7877 10.3937C61.5728 9.8521 60.2566 9.8521 59.0417 10.3937L11.3568 31.6067C9.93938 32.2386 9.0282 33.5926 9.0282 34.9466C9.0282 36.3909 9.93938 37.6546 11.3568 38.2865L59.0417 59.5897C59.6492 59.8606 60.2566 59.9508 60.9653 59.9508C61.5728 59.9508 62.2815 59.8606 62.8889 59.5897L110.574 38.3768C111.991 37.7449 112.902 36.4811 112.902 35.0369C112.801 33.5926 111.89 32.2386 110.473 31.6067ZM60.8641 52.0975L22.5946 34.9466L60.8641 17.8859L99.1335 34.9466L60.8641 52.0975Z" fill="url(#paint0_linear_102_2)"/>
<path d="M112.295 75.838C111.283 74.0326 108.752 73.2202 106.626 74.1229L60.8643 94.6137L15.1029 74.1229C13.0781 73.2202 10.547 73.9423 9.43337 75.838C8.42095 77.6433 9.23089 79.9 11.357 80.893L59.0419 102.106C59.6494 102.377 60.2568 102.467 60.9655 102.467C61.573 102.467 62.2817 102.377 62.8891 102.106L110.574 80.893C112.498 79.9 113.308 77.6433 112.295 75.838Z" fill="url(#paint1_linear_102_2)"/>
<path d="M112.295 54.5347C111.283 52.7294 108.752 51.917 106.626 52.8196L60.8643 73.3105L15.1029 52.9099C13.0781 52.0072 10.547 52.7294 9.43337 54.625C8.42095 56.4304 9.23089 58.6871 11.357 59.68L59.0419 80.893C59.6494 81.1638 60.2568 81.2541 60.9655 81.2541C61.573 81.2541 62.2817 81.1638 62.8891 80.893L110.473 59.5897C112.498 58.6871 113.308 56.4304 112.295 54.5347Z" fill="url(#paint2_linear_102_2)"/>
<path d="M159.995 40.614C159.719 37.8643 158.546 35.7291 156.476 34.2083C154.406 32.6876 151.598 31.9289 148.053 31.9323C145.644 31.9346 143.61 32.2775 141.952 32.9609C140.294 33.6215 139.022 34.5432 138.137 35.7259C137.275 36.9085 136.845 38.2499 136.847 39.7499C136.803 40.9999 137.065 42.0906 137.635 43.0218C138.227 43.9531 139.034 44.7591 140.058 45.44C141.081 46.0981 142.264 46.6765 143.605 47.1752C144.947 47.6512 146.379 48.0589 147.902 48.3984L154.177 49.8923C157.223 50.5712 160.02 51.4777 162.567 52.6116C165.113 53.7455 167.32 55.1411 169.185 56.7984C171.051 58.4557 172.496 60.4089 173.522 62.6579C174.57 64.9069 175.107 67.4859 175.133 70.395C175.116 74.6677 174.029 78.3733 171.874 81.5118C169.742 84.6274 166.654 87.0509 162.61 88.782C158.59 90.4904 153.738 91.3473 148.056 91.3528C142.42 91.3582 137.51 90.4992 133.326 88.776C129.165 87.0527 125.912 84.499 123.567 81.1149C121.245 77.708 120.024 73.4933 119.904 68.4706L134.188 68.457C134.35 70.7977 135.023 72.7516 136.206 74.3187C137.413 75.863 139.016 77.0319 141.017 77.8254C143.041 78.5962 145.326 78.9804 147.871 78.9779C150.371 78.9755 152.541 78.6098 154.381 77.8808C156.244 77.1517 157.686 76.139 158.707 74.8426C159.728 73.5461 160.238 72.057 160.236 70.3752C160.234 68.807 159.766 67.4893 158.833 66.422C157.923 65.3547 156.581 64.4469 154.807 63.6986C153.056 62.9502 150.908 62.2705 148.362 61.6593L140.757 59.7575C134.869 58.3313 130.218 56.0971 126.806 53.0549C123.393 50.0127 121.695 45.9121 121.711 40.753C121.684 36.5257 122.804 32.8315 125.073 29.6702C127.365 26.5089 130.509 24.04 134.507 22.2634C138.505 20.4869 143.05 19.5962 148.14 19.5913C153.322 19.5863 157.846 20.4684 161.712 22.2374C165.6 24.0064 168.626 26.4694 170.789 29.6264C172.952 32.7834 174.07 36.4415 174.143 40.6005L159.995 40.614ZM180.911 20.5144L197.446 20.4986L213.402 50.5515L214.084 50.5509L229.968 20.4674L246.502 20.4516L221.091 65.6123L221.121 90.2941L206.461 90.3082L206.432 65.6264L180.911 20.5144ZM292.464 40.4871C292.188 37.7374 291.015 35.6021 288.945 34.0814C286.875 32.5606 284.067 31.802 280.522 31.8054C278.113 31.8077 276.079 32.1505 274.421 32.8339C272.762 33.4946 271.491 34.4163 270.606 35.599C269.744 36.7816 269.313 38.1229 269.315 39.6229C269.271 40.873 269.534 41.9636 270.103 42.8949C270.695 43.8262 271.503 44.6322 272.527 45.313C273.55 45.9711 274.733 46.5496 276.074 47.0483C277.416 47.5243 278.848 47.932 280.371 48.2714L286.646 49.7654C289.692 50.4443 292.488 51.3507 295.035 52.4847C297.582 53.6186 299.788 55.0142 301.654 56.6715C303.52 58.3288 304.965 60.282 305.991 62.531C307.039 64.78 307.576 67.359 307.602 70.2681C307.585 74.5408 306.498 78.2464 304.343 81.3848C302.21 84.5005 299.122 86.9239 295.079 88.6551C291.058 90.3635 286.207 91.2204 280.525 91.2258C274.889 91.2312 269.979 90.3723 265.795 88.649C261.634 86.9258 258.38 84.3721 256.036 80.9879C253.713 77.5811 252.492 73.3663 252.373 68.3437L266.657 68.33C266.819 70.6708 267.491 72.6247 268.675 74.1917C269.881 75.736 271.485 76.905 273.486 77.6985C275.51 78.4693 277.794 78.8535 280.34 78.851C282.84 78.8486 285.01 78.4829 286.85 77.7539C288.713 77.0248 290.155 76.0121 291.176 74.7156C292.197 73.4192 292.706 71.9301 292.704 70.2483C292.703 68.6801 292.235 67.3623 291.302 66.2951C290.392 65.2277 289.05 64.3199 287.276 63.5716C285.525 62.8233 283.376 62.1436 280.83 61.5324L273.226 59.6306C267.338 58.2044 262.687 55.9702 259.274 52.928C255.862 49.8858 254.164 45.7852 254.18 40.6261C254.152 36.3988 255.273 32.7046 257.542 29.5433C259.833 26.382 262.978 23.9131 266.976 22.1365C270.974 20.36 275.518 19.4692 280.609 19.4644C285.791 19.4594 290.315 20.3414 294.18 22.1105C298.069 23.8795 301.095 26.3425 303.258 29.4995C305.42 32.6565 306.539 36.3145 306.612 40.4736L292.464 40.4871ZM314.827 32.5566L314.812 20.3861L372.153 20.3312L372.167 32.5016L350.792 32.5221L350.862 90.1698L336.271 90.1838L336.202 32.5361L314.827 32.5566ZM381.68 90.1403L381.596 20.3222L428.641 20.2771L428.656 32.4475L396.372 32.4785L396.392 49.1148L426.256 49.0862L426.27 61.2566L396.407 61.2853L396.427 77.9557L428.847 77.9246L428.862 90.0951L381.68 90.1403ZM440.377 20.2658L458.582 20.2484L477.866 67.139L478.684 67.1382L497.854 20.2108L516.059 20.1933L516.143 90.0115L501.825 90.0252L501.77 44.582L501.191 44.5826L483.177 89.7021L473.427 89.7115L455.304 44.4561L454.725 44.4566L454.78 90.0702L440.461 90.084L440.377 20.2658Z" fill="#DA8CFF"/>
</g>
<defs>
<linearGradient id="paint0_linear_102_2" x1="-5.80071" y1="34.9902" x2="673.739" y2="34.9902" gradientUnits="userSpaceOnUse">
<stop offset="0.0015024" stop-color="#DA8CFF"/>
<stop offset="1" stop-color="#9A55FF"/>
</linearGradient>
<linearGradient id="paint1_linear_102_2" x1="-5.8005" y1="88.1213" x2="673.739" y2="88.1213" gradientUnits="userSpaceOnUse">
<stop offset="0.0015024" stop-color="#DA8CFF"/>
<stop offset="1" stop-color="#9A55FF"/>
</linearGradient>
<linearGradient id="paint2_linear_102_2" x1="-5.8005" y1="66.8687" x2="673.739" y2="66.8687" gradientUnits="userSpaceOnUse">
<stop offset="0.0015024" stop-color="#DA8CFF"/>
<stop offset="1" stop-color="#9A55FF"/>
</linearGradient>
<clipPath id="clip0_102_2">
<rect width="644" height="140" fill="white"/>
</clipPath>
</defs>
</svg>
